<svg width="62" height="60" viewBox="0 0 62 60" fill="none" xmlns="http://www.w3.org/2000/svg">
<path d="M30.8564 32.0873C36.3146 21.9899 48.2963 1.7201 31.3928 2.00293C14.4894 2.28575 25.9873 21.3418 30.8564 32.0873Z" stroke="#CDD6E6" stroke-width="2.5" stroke-linejoin="round"/>
<path d="M30.8267 32.1436C20.3094 36.8261 -1.61941 45.5918 11.9414 55.6405C25.5022 65.6893 28.0901 43.612 30.8267 32.1436Z" stroke="#CDD6E6" stroke-width="2.5" stroke-linejoin="round"/>
<path d="M30.8848 32.1059C42.3564 33.1754 65.7833 36.2734 58.9399 20.8885C52.0964 5.5035 38.9365 23.4601 30.8848 32.1059Z" stroke="#CDD6E6" stroke-width="2.5" stroke-linejoin="round"/>
<path d="M30.8848 32.1436C33.5856 43.2899 38.2383 66.3467 50.6472 54.9175C63.0561 43.4884 41.7183 36.9179 30.8848 32.1436Z" stroke="#CDD6E6" stroke-width="2.5" stroke-linejoin="round"/>
<path d="M30.8301 32.104C23.5048 23.254 9.18556 4.54065 3.05545 20.2159C-3.07466 35.8912 18.9896 32.5198 30.8301 32.104Z" stroke="#CDD6E6" stroke-width="2.5" stroke-linejoin="round"/>
</svg>
