<svg width="100" height="62" viewBox="0 0 100 62" fill="none" xmlns="http://www.w3.org/2000/svg">
<g opacity="0.85">
<path d="M4.71263 53.9379L61.4342 20.7268L64.7748 26.586L8.05326 59.7971C6.92893 59.3318 5.9616 58.5506 5.26545 57.5456C4.75172 56.4204 4.56024 55.1709 4.71263 53.9379Z" fill="url(#paint0_linear_1699_10206)"/>
<path d="M51.2464 26.69L59.4341 21.8435C60.7201 22.0807 61.8778 22.7743 62.6992 23.7998C63.1727 25.0749 63.2138 26.4751 62.816 27.7812L54.608 32.592C53.8629 31.7159 53.1944 30.7759 52.6099 29.7825C52.0635 28.7961 51.6071 27.761 51.2464 26.69Z" fill="url(#paint1_linear_1699_10206)"/>
<path d="M63.1571 26.7077C62.9133 26.0073 62.545 25.0911 62.0425 24.2092C61.5145 23.2825 60.8496 22.4135 60.3359 21.7959L93.6824 3.66993C94.0605 3.93735 94.5602 4.36231 94.8386 4.85101C95.1344 5.37012 95.2426 6.04194 95.282 6.48957L63.1571 26.7077Z" fill="url(#paint2_linear_1699_10206)"/>
<path d="M61.7512 22.0884C62.1238 22.5874 62.5104 23.1531 62.8455 23.7413C63.1479 24.2723 63.4047 24.8151 63.6177 25.3215L94.2793 6.0201C94.2249 5.76374 94.1458 5.51209 94.0361 5.31961C93.9272 5.12848 93.7603 4.94396 93.5829 4.78191L61.7512 22.0884ZM58.8564 21.5415L93.7266 2.58311C93.7266 2.58311 95.0208 3.27362 95.6481 4.3749C96.2754 5.47618 96.2359 6.98825 96.2359 6.98825L62.6204 28.1492C62.6204 28.1492 62.1744 26.338 61.2335 24.686C60.2925 23.0341 58.8564 21.5415 58.8564 21.5415Z" fill="white"/>
<path d="M61.209 22.1382L65.697 19.689C66.2591 20.1062 66.734 20.631 67.0953 21.2339C67.4453 21.9167 67.688 22.6512 67.8147 23.411L63.4911 26.1492C63.3103 25.3462 63.0259 24.5715 62.6454 23.8448C62.2637 23.199 61.7783 22.6223 61.209 22.1382Z" fill="#192437"/>
<path d="M65.8795 19.02C66.5964 19.5903 67.2099 20.2814 67.6933 21.0632C68.1133 21.8789 68.3493 22.7795 68.3845 23.701" stroke="white" stroke-width="1.00024"/>
<path d="M4.55141 53.9987L10.3109 50.6227C10.5544 51.7127 10.9484 52.7619 11.4812 53.7394C12.0958 54.7533 12.8259 55.6903 13.6566 56.5315L7.89882 59.9066C6.70251 59.556 5.6534 58.8212 4.90954 57.8127C4.41253 56.6091 4.28769 55.2796 4.55141 53.9987Z" fill="url(#paint3_linear_1699_10206)"/>
<path d="M9.71985 50.9729L18.9536 45.5869C19.0046 46.7705 19.3084 47.9275 19.8443 48.9784C20.4689 49.9767 21.2838 50.8389 22.2418 51.5149L13.0853 56.8816C12.2083 56.0643 11.4459 55.1297 10.8189 54.1035C10.2877 53.1276 9.91657 52.0704 9.71985 50.9729Z" fill="url(#paint4_linear_1699_10206)"/>
<path d="M27.8684 40.371L33.6257 36.9962C33.8426 38.093 34.2258 39.1483 34.7619 40.125C35.3882 41.1541 36.1424 42.0973 37.0061 42.9319L31.2488 46.3066C30.343 45.4451 29.5493 44.4705 28.8867 43.4061C28.3659 42.4671 28.0207 41.4383 27.8684 40.371Z" fill="url(#paint5_linear_1699_10206)"/>
<path d="M37.9168 34.4858L43.6178 31.144C43.9685 32.2169 44.4195 33.253 44.9647 34.2384C45.5524 35.2324 46.2336 36.1664 46.9987 37.0276L41.2396 40.4034C40.4649 39.503 39.7698 38.5354 39.1622 37.5116C38.63 36.557 38.212 35.5413 37.9168 34.4858Z" fill="url(#paint6_linear_1699_10206)"/>
<path d="M9.22949 51.2058L9.87653 50.8267C10.1052 51.9862 10.5024 53.1041 11.0552 54.1443C11.6512 55.1344 12.3952 56.0248 13.261 56.7842L12.6139 57.1632C11.7497 56.3894 11.004 55.4904 10.4007 54.4951C9.85279 53.4634 9.45816 52.3551 9.22949 51.2058Z" fill="url(#paint7_linear_1699_10206)"/>
</g>
<defs>
<linearGradient id="paint0_linear_1699_10206" x1="50.7446" y1="30.5337" x2="49.8648" y2="28.8615" gradientUnits="userSpaceOnUse">
<stop stop-color="white"/>
<stop offset="1" stop-color="#808080"/>
</linearGradient>
<linearGradient id="paint1_linear_1699_10206" x1="55.6394" y1="23.7033" x2="59.3189" y2="29.8316" gradientUnits="userSpaceOnUse">
<stop stop-color="#404040"/>
<stop offset="0.445" stop-color="#D0D0D0"/>
<stop offset="1" stop-color="#292929"/>
</linearGradient>
<linearGradient id="paint2_linear_1699_10206" x1="76.8887" y1="12.0974" x2="79.7521" y2="16.9844" gradientUnits="userSpaceOnUse">
<stop stop-color="white"/>
<stop offset="1" stop-color="#192437"/>
</linearGradient>
<linearGradient id="paint3_linear_1699_10206" x1="6.75113" y1="52.7093" x2="10.1845" y2="58.5668" gradientUnits="userSpaceOnUse">
<stop stop-color="#C3C3C3"/>
<stop offset="0.445" stop-color="#505050"/>
<stop offset="1" stop-color="#919191"/>
</linearGradient>
<linearGradient id="paint4_linear_1699_10206" x1="13.735" y1="48.257" x2="17.3988" y2="54.3541" gradientUnits="userSpaceOnUse">
<stop stop-color="#E0E0E0"/>
<stop offset="0.445" stop-color="#505050"/>
<stop offset="1" stop-color="#C6C6C6"/>
</linearGradient>
<linearGradient id="paint5_linear_1699_10206" x1="30.2058" y1="38.6367" x2="33.9229" y2="44.7377" gradientUnits="userSpaceOnUse">
<stop stop-color="#6E6E6E"/>
<stop offset="0.445" stop-color="#BCBCBC"/>
<stop offset="1" stop-color="#292929"/>
</linearGradient>
<linearGradient id="paint6_linear_1699_10206" x1="40.3295" y1="32.7098" x2="44.0251" y2="38.7691" gradientUnits="userSpaceOnUse">
<stop stop-color="#404040"/>
<stop offset="0.445" stop-color="#D0D0D0"/>
<stop offset="1" stop-color="#292929"/>
</linearGradient>
<linearGradient id="paint7_linear_1699_10206" x1="9.11097" y1="50.9099" x2="13.26" y2="56.7098" gradientUnits="userSpaceOnUse">
<stop/>
<stop offset="0.445"/>
<stop offset="1" stop-color="#0D0D0D"/>
</linearGradient>
</defs>
</svg>
