<svg width="100" height="97" viewBox="0 0 100 97" fill="none" xmlns="http://www.w3.org/2000/svg">
<g opacity="0.85">
<g filter="url(#filter0_d_1699_10132)">
<path d="M24.0353 77.2516C22.9463 77.4638 22.449 77.3326 21.6963 77.1341C21.4716 77.0748 21.2169 77.0076 20.9328 76.9468C20.1154 76.7718 18.4201 75.5382 16.8757 74.266L17.1799 74.3213C17.3035 74.3438 20.2385 74.8691 22.9726 74.6283C23.0885 74.6181 23.2139 74.5999 23.3455 74.5742C26.348 73.989 34.7159 68.7933 35.1612 68.4779C35.3693 68.3278 40.1417 64.863 43.7256 60.3078C45.5625 57.9731 46.2872 56.1719 46.9266 54.5829C47.5547 53.022 48.0507 51.7892 49.4584 50.3599C49.8035 50.0103 52.6495 47.9024 54.7098 46.4029C54.6325 46.498 54.5545 46.5927 54.4763 46.6862C54.1692 47.0015 51.6074 49.6544 49.817 52.2283C48.6769 53.8672 48.2901 54.7552 47.916 55.614C47.6752 56.1668 47.4478 56.689 46.9997 57.425C44.8544 60.9395 42.3175 64.0981 42.0668 64.4081C38.7965 67.8911 32.6997 73.9691 28.4299 75.7506C26.4527 76.5756 25.0563 77.0525 24.0353 77.2516ZM16.5222 73.972C16.0467 73.5728 15.5937 73.1773 15.1953 72.8175L15.5365 70.2878L16.4309 73.6308L16.5222 73.972Z" fill="white"/>
<path d="M23.8542 76.3162C24.7972 76.1324 26.1744 75.6597 28.0643 74.8711C30.0958 74.0235 32.9735 71.8946 36.3127 68.8058C35.9738 69.0656 35.7643 69.2175 35.725 69.2459L35.7116 69.2555C35.636 69.309 26.9328 74.8458 23.5274 75.5096C23.3634 75.5415 23.2049 75.5644 23.0559 75.5775C22.1257 75.6595 21.1748 75.6569 20.3104 75.6153C20.6686 75.8335 20.9527 75.974 21.1331 76.0149C21.4391 76.0804 21.7053 76.1507 21.9402 76.2126C22.6537 76.4008 22.9793 76.4867 23.8542 76.3162ZM24.2171 78.1869C22.5499 78.5119 21.9335 78.1356 20.7333 77.8787C18.8028 77.4655 14.1852 73.1849 14.1852 73.1849L14.7501 68.9954L16.261 69.3083L17.3514 73.3837C17.3514 73.3837 20.2523 73.9114 22.8902 73.679C25.3461 73.4626 34.0905 68.0692 34.6118 67.7001C34.6118 67.7001 39.4356 64.2208 42.9779 59.7185C46.5201 55.2163 45.7294 52.7893 48.7808 49.691C49.4368 49.0249 56.2804 44.0718 56.3381 44.0724C59.3796 42.3239 55.1834 47.3255 55.1834 47.3255C55.1834 47.3255 52.4416 50.1234 50.5991 52.7721C48.7567 55.4207 48.9875 55.9916 47.8137 57.92C45.5049 61.7022 42.7849 65.035 42.7849 65.035C40.0332 67.9674 33.4588 74.6848 28.7964 76.6301C26.635 77.532 25.2316 77.9892 24.2171 78.1869Z" fill="white"/>
</g>
<g filter="url(#filter1_d_1699_10132)">
<path d="M40.8875 45.5912C39.582 46.0345 38.051 46.5418 36.5719 47.0023C34.5259 47.6393 33.0474 48.3073 31.6177 48.9532C30.4151 49.4965 29.2792 50.0097 27.9231 50.4376C25.2161 51.2916 23.5991 51.0532 23.5831 51.0507L23.2344 50.9909L22.938 51.1746C22.6401 51.3539 15.6132 55.5923 13.0241 57.8458C12.7629 58.0731 12.5549 58.2724 12.3882 58.4552C11.4317 59.5033 10.5628 60.8246 9.93605 61.8775L9.46683 58.726C10.0091 57.7943 11.9322 54.658 14.4402 52.4751C14.8962 52.0782 15.3527 51.7298 15.797 51.4395C19.3972 49.0876 23.5754 48.9366 23.6172 48.9354L23.7731 48.9307L23.9208 48.8764C23.9649 48.8601 28.3849 47.2334 33.2329 46.3751C34.6477 46.1247 36.738 45.9441 38.7595 45.7695C39.1911 45.7322 39.6171 45.6954 40.0296 45.6585L40.8875 45.5912Z" fill="white"/>
<path d="M15.0643 53.1973C12.8744 55.1034 11.1374 57.7933 10.458 58.923L10.5098 59.2706C10.8781 58.7646 11.2734 58.2669 11.6849 57.8159C11.8766 57.6058 12.1103 57.3815 12.3993 57.13C15.0506 54.8224 22.1467 50.5421 22.4475 50.361L23.026 49.9685L23.7376 50.1127C23.8928 50.1304 25.3172 50.2636 27.6374 49.5316C28.9396 49.1208 30.0504 48.6189 31.2265 48.0876C31.6759 47.8845 32.1447 47.6727 32.6446 47.4569C28.1918 48.3242 24.2915 49.7582 24.251 49.7732L23.9609 49.8826L23.6461 49.8912C23.6068 49.8925 19.6771 50.0455 16.3167 52.2407C15.9088 52.5072 15.4874 52.8291 15.0643 53.1973ZM13.8153 51.7592C14.2832 51.3519 14.7717 50.9744 15.2767 50.6445C19.1627 48.1059 23.5906 47.9857 23.5906 47.9857C23.5906 47.9857 28.0713 46.3242 33.0678 45.4395C34.8366 45.1264 37.611 44.9211 39.9497 44.7118L42.7168 44.4946L60.2857 39.2483L61.1753 40.8568L44.6222 45.3039C44.6222 45.3039 40.6009 46.749 36.8541 47.9155C33.1073 49.082 31.2164 50.4008 28.2086 51.3498C25.2008 52.2987 23.4281 51.9945 23.4281 51.9945C23.4281 51.9945 14.8787 57.1415 13.0906 59.101C11.3025 61.0605 9.79194 64.1117 9.79194 64.1117L12.9291 64.5519L13.0469 66.4437L9.40184 64.763L8.47602 58.5446C8.47602 58.5446 10.6825 54.486 13.8153 51.7592Z" fill="white"/>
</g>
<g filter="url(#filter2_d_1699_10132)">
<path d="M46.3007 39.6241C46.2017 39.5979 46.1024 39.5701 46.0029 39.5406C43.7299 38.867 39.5461 36.1287 37.8055 34.9495C38.2811 35.133 38.7448 35.3183 39.1915 35.5002C39.325 35.5734 39.8071 35.8721 40.274 36.1614C42.4193 37.4907 44.7759 38.9273 46.3007 39.6241ZM35.066 33.9756C34.6139 33.9056 34.0719 33.8274 33.4726 33.7519C31.7133 33.5303 29.1374 33.2945 26.8565 33.4296C25.9772 33.4816 25.1456 33.5869 24.3722 33.7248C25.5589 33.2637 26.8988 32.9109 28.3222 32.8299C30.3812 32.7128 32.7664 33.2397 35.066 33.9756ZM10.9849 56.2826L10.7816 55.7085L10.7727 55.6833L10.7624 55.6587C10.7488 55.6257 9.32606 52.0931 10.4605 47.8562C10.7377 46.8208 11.1489 45.8138 11.6826 44.863C12.6017 43.2258 13.4575 41.9552 14.2566 40.9495C13.458 42.2279 12.732 43.6467 12.2946 45.0847C11.9496 46.2192 11.7115 47.0192 11.5155 47.7511C10.836 50.2888 10.7261 51.7451 10.9274 55.5423C10.9405 55.7901 10.9599 56.0372 10.9849 56.2826Z" fill="white"/>
<path d="M9.53707 47.6081C9.81554 46.5681 10.2362 45.4857 10.8492 44.3937C14.1927 38.4376 16.8062 37.0974 18.808 35.9518C18.808 35.9518 22.9396 32.1769 28.2683 31.8737C32.0037 31.6612 36.6698 33.4379 39.5797 34.6243C39.8818 34.739 45.3179 38.3031 47.2981 39.0004C49.2782 39.6976 50.1926 39.4369 50.1926 39.4369L51.6798 40.79C51.6798 40.79 48.8199 41.3737 45.7313 40.4584C42.6427 39.5431 36.4634 35.1882 36.4634 35.1882C37.5793 35.4102 31.5645 34.1097 26.9129 34.3851C22.2521 34.6611 18.9599 36.5195 18.9599 36.5195C18.9599 36.5195 14.5635 40.9126 13.2098 45.3631C11.8561 49.8136 11.6333 50.7865 11.8827 55.4909C12.1321 60.1952 14.8067 64.6515 14.8067 64.6515L13.0966 65.1105L9.88057 56.0282C9.88057 56.0282 8.29673 52.2407 9.53707 47.6081Z" fill="#FCFCFC"/>
</g>
<g filter="url(#filter3_d_1699_10132)">
<path d="M59.1643 39.4196C57.9688 40.0469 56.1306 40.9074 54.9754 41.0547C53.5106 41.2415 52.6591 40.5026 52.5789 40.4295L52.5351 40.3836L52.4985 40.3592L52.1564 40.0915L53.7853 40.2818L54.0675 40.3148L54.3218 40.1875L58.37 38.161L59.1643 39.4196ZM46.2765 37.2712C44.7754 37.0494 43.1383 37.0422 41.7657 37.4702C40.3323 37.9171 39.084 38.8604 37.6384 39.9527C36.7892 40.5944 35.9111 41.2579 34.8934 41.9006C31.7997 43.8432 28.1199 45.7974 28.0831 45.817L27.7981 45.9681L27.6632 46.2614C27.6409 46.31 25.4016 51.1537 22.9404 54.1519C22.3393 54.8841 21.6681 55.5742 20.9456 56.2031C19.2727 57.6593 17.8624 58.3146 17.8483 58.3211L17.4981 58.4818L17.356 58.8418L17.2321 59.159L17.5144 57.9238L18.1227 55.5208L18.1303 55.4908L18.136 55.4605C18.1402 55.4382 18.6315 52.9566 20.6612 50.2343C21.2244 49.4789 22.0075 48.6629 22.9887 47.8089C24.9441 46.1069 27.0195 44.8415 27.0402 44.8289L27.205 44.7289L27.3182 44.5725C27.3339 44.5509 28.9368 42.3537 31.2563 40.3349C32.3259 39.4039 33.3831 38.6529 34.3985 38.1028C38.3397 35.9676 42.1371 35.0817 43.6707 35.4201L46.2765 37.2712Z" fill="white"/>
<path d="M31.8811 41.0535C30.4314 42.3154 29.2701 43.6516 28.6311 44.4375C29.9327 43.7259 32.2961 42.4065 34.3861 41.0941C35.37 40.4728 36.2319 39.8215 37.0655 39.1917C38.5189 38.0934 39.8918 37.056 41.4835 36.5597C41.8009 36.4607 42.1273 36.3825 42.4597 36.3226C40.8244 36.462 37.9185 37.279 34.8516 38.9406C33.8975 39.4575 32.8981 40.1684 31.8811 41.0535ZM23.6136 48.5275C22.6836 49.3369 21.9471 50.1027 21.4246 50.8036C19.5874 53.2676 19.0982 55.5115 19.0718 55.6379L19.064 55.6835L18.8216 56.6408C19.2607 56.3424 19.7757 55.9586 20.3216 55.4835C21.004 54.8896 21.6377 54.2379 22.2053 53.5465C24.1957 51.122 26.0533 47.414 26.6216 46.2359C25.8559 46.7532 24.7139 47.5698 23.6136 48.5275ZM30.6322 39.6154C31.625 38.7512 32.7488 37.9129 33.9461 37.2642C38.0832 35.0229 42.2988 34.0098 44.0808 34.5414L50.2237 38.9054L53.8967 39.3346L58.7156 36.9223L60.5105 39.7665C60.5105 39.7665 57.1223 41.7413 55.0954 41.9998C53.0684 42.2583 51.912 41.1098 51.912 41.1098L49.3835 39.1311C47.917 38.4302 44.5141 37.611 42.0486 38.3797C39.9917 39.0211 38.1675 40.9594 35.4014 42.7062C32.2402 44.6911 28.5286 46.6587 28.5286 46.6587C28.5286 46.6587 26.2476 51.6239 23.6763 54.7562C21.1049 57.8884 18.2433 59.1877 18.2433 59.1877L16.0538 64.7935L14.9723 64.7755L16.589 57.7011L17.2001 55.2868C17.2001 55.2868 17.6941 52.6209 19.8987 49.6641C22.1032 46.7073 26.5476 44.0133 26.5476 44.0133C26.5476 44.0133 28.1946 41.737 30.6322 39.6154Z" fill="white"/>
</g>
<g filter="url(#filter4_d_1699_10132)">
<path d="M33.5251 80.0635C33.5249 80.0635 33.5254 80.0635 33.5251 80.0635C29.1512 79.8459 26.155 77.5405 25.8286 77.2788L25.3237 76.7609C25.5571 76.8718 25.7912 76.9723 26.0256 77.0613C29.7439 78.4725 31.2295 78.8283 33.9733 78.9646C34.7664 79.0041 35.6408 79.0234 36.8832 79.0435C38.7063 79.073 40.6289 78.7096 42.3539 78.2267C40.9737 78.8012 39.2208 79.3423 36.9197 79.8061C35.7945 80.0329 34.6523 80.1195 33.5251 80.0635ZM51.8228 71.1436C52.2926 70.3077 52.7499 69.3714 53.1523 68.3423C54.3703 65.2276 55.0573 61.3102 55.3435 59.3818C55.3796 62.1127 55.1671 64.9216 54.3188 67.1061C53.7077 68.6796 52.7871 70.0332 51.8228 71.1436ZM54.5057 59.0674L53.8357 58.7425L53.6356 58.1371L55.3186 58.3461C55.3223 58.454 55.3257 58.5625 55.3287 58.6709C55.145 58.9248 54.8378 59.0839 54.5057 59.0674Z" fill="white"/>
<path d="M33.4744 81.0187C28.4519 80.7689 25.1814 77.9859 25.1814 77.9859L16.1121 68.6827L17.0318 67.615C17.0318 67.615 21.7468 74.4187 26.3617 76.1702C30.9766 77.9216 32.0193 78.0116 36.8966 78.0905C41.7738 78.1695 47.5726 75.2096 47.5726 75.2096C47.5726 75.2096 50.4864 72.5355 52.2613 67.9969C53.8584 63.9127 54.5333 58.3187 54.5499 58.1221C54.6866 57.0519 55.5613 49.9737 55.3365 45.7307C55.0929 41.1319 61.3736 39.475 61.3736 39.475C61.3736 39.475 62.46 38.4949 61.6372 40.4516C60.8145 42.4083 56.1677 43.3007 56.2265 45.4893C56.2854 47.6779 56.0801 55.0095 56.0974 55.346C56.3455 58.614 56.6175 63.814 55.2038 67.4542C53.187 72.6472 48.0903 75.5418 48.0903 75.5418C46.303 77.1628 44.1247 79.3288 37.1047 80.7438C35.8176 81.0032 34.6021 81.0748 33.4744 81.0187ZM54.5321 58.2593C54.5456 58.1434 54.5517 58.1006 54.5499 58.1221C54.5384 58.2118 54.5321 58.2593 54.5321 58.2593Z" fill="#FCFCFC"/>
</g>
<g filter="url(#filter5_d_1699_10132)">
<path d="M43.8573 64.4137C41.4373 65.0638 39.5275 65.1334 39.5085 65.134L39.3472 65.1393L39.1955 65.1974C39.1732 65.206 36.9338 66.0643 34.408 66.7428C34.4077 66.7429 34.4083 66.7427 34.408 66.7428C32.6034 67.2275 31.1101 67.5013 29.9708 67.5564C27.0922 67.6954 23.7293 67.0856 22.5691 66.8519L22.6864 66.7768C22.7121 66.7604 25.3321 65.0992 28.3381 64.2917C29.0712 64.0948 29.7732 63.9635 30.4247 63.9014C34.3928 63.5232 37.4627 63.45 37.4932 63.4493L37.7104 63.4443L37.9043 63.346C37.9369 63.3294 41.2073 61.672 44.6972 60.0674C46.0197 59.4593 46.9836 59.1969 47.8341 58.9653C49.2369 58.5834 50.4485 58.2535 52.2849 56.6959C54.4042 54.8985 55.3836 53.1619 55.8668 51.7207C56.1351 52.9424 56.3147 53.9445 55.2012 55.9276C53.1994 59.4927 51.8108 60.7981 47.772 62.912C46.5994 63.5257 45.2823 64.031 43.8573 64.4137ZM56.1124 47.3304L56.058 46.5559L56.0532 46.4868L56.0446 46.4489C56.0284 46.3378 55.8942 45.215 56.8703 44.1005C57.6595 43.1995 59.3453 42.0186 60.4919 41.2754L61.0225 42.2759C59.7455 43.214 57.1992 45.2542 56.1124 47.3304Z" fill="white"/>
<path d="M43.6109 63.4885C44.9683 63.1239 46.2196 62.6444 47.3301 62.0632C50.6193 60.3416 52.0177 59.2368 53.5321 56.8652C53.3337 57.0511 53.1245 57.2377 52.904 57.4247C50.9052 59.1199 49.5355 59.4929 48.0855 59.8877C47.2311 60.1203 46.3475 60.3609 45.097 60.9359C41.6252 62.5321 38.3697 64.1819 38.3373 64.1983L37.9496 64.395L37.5152 64.4049C37.485 64.4056 34.4497 64.478 30.5157 64.853C29.9172 64.91 29.2681 65.0318 28.5864 65.2149C27.4563 65.5184 26.3803 65.9505 25.4917 66.3626C26.8455 66.5373 28.4543 66.6706 29.9264 66.5995C30.9825 66.5485 32.4468 66.2782 34.1617 65.8176C36.6346 65.1533 38.8319 64.3116 38.8534 64.3033L39.1569 64.1878L39.4777 64.1766C39.4958 64.176 41.311 64.1063 43.6109 63.4885ZM44.1056 65.3369C41.5351 66.0274 39.5393 66.0894 39.5393 66.0894C39.5393 66.0894 33.7138 68.3326 30.0172 68.5111C26.3207 68.6897 21.9401 67.6963 21.9401 67.6963L16.984 66.8847L16.676 65.7341L22.1721 65.97C22.1721 65.97 26.2873 63.3336 30.3357 62.9478C34.3841 62.5619 37.4731 62.4916 37.4731 62.4916C37.4731 62.4916 40.7507 60.8285 44.2993 59.197C47.848 57.5654 48.9099 58.3042 51.6677 55.9652C54.4255 53.6263 55.0902 51.4571 55.3306 49.8412L55.1049 46.6227C55.1049 46.6227 54.7991 45.0141 56.1521 43.4694C57.5051 41.9246 60.8565 39.9183 60.8565 39.9183L62.2626 42.5694C62.2626 42.5694 56.9595 46.1473 56.5782 48.8657C56.1969 51.584 58.1264 52.6716 56.0359 56.3949C53.9452 60.1182 52.4023 61.5676 48.2157 63.7588C46.82 64.4893 45.3911 64.9916 44.1056 65.3369Z" fill="white"/>
</g>
<path d="M15.8963 69.4629C17.1593 68.9765 17.7109 67.3524 17.1285 65.8352C16.546 64.3181 15.0499 63.4825 13.7869 63.9689C12.5239 64.4553 11.9722 66.0795 12.5547 67.5966C13.1372 69.1138 14.6333 69.9493 15.8963 69.4629Z" fill="white"/>
<path d="M15.8963 69.4629C17.1593 68.9765 17.7109 67.3524 17.1285 65.8352C16.546 64.3181 15.0499 63.4825 13.7869 63.9689C12.5239 64.4553 11.9722 66.0795 12.5547 67.5966C13.1372 69.1138 14.6333 69.9493 15.8963 69.4629Z" fill="white"/>
</g>
<path d="M61.8158 41.9885C61.5677 41.291 61.1957 40.3838 60.6912 39.5095C60.1607 38.5903 59.4949 37.7271 58.9775 37.1099L92.3834 19.1961C92.762 19.4635 93.2589 19.8849 93.5374 20.3675C93.8186 20.8546 93.9405 21.5118 93.9869 21.9861L61.8158 41.9885Z" fill="url(#paint0_linear_1699_10132)"/>
<path d="M60.4257 37.4098C60.796 37.9023 61.1788 38.4579 61.5119 39.035C61.8117 39.5547 62.0677 40.0855 62.2813 40.5824L92.9551 21.5107C92.9003 21.2656 92.8223 21.0265 92.7161 20.8424C92.6142 20.6658 92.4556 20.4883 92.281 20.3272L60.4257 37.4098ZM57.4688 36.8428L92.4212 18.0993C92.4212 18.0993 93.7241 18.7926 94.3587 19.8923C94.9933 20.992 94.9597 22.4982 94.9597 22.4982L61.2765 43.441C61.2765 43.441 60.8212 41.6348 59.8693 39.9852C58.9174 38.3356 57.4688 36.8428 57.4688 36.8428Z" fill="white"/>
<path d="M59.8271 37.4678L68.8622 32.4931C69.4212 32.8619 69.8969 33.3436 70.2588 33.9073C70.6829 34.5847 70.8942 35.374 70.8653 36.1731L62.132 41.4619C61.9115 40.6734 61.6037 39.9121 61.2143 39.1921C60.8349 38.5551 60.3679 37.9747 59.8271 37.4678Z" fill="#192437"/>
<path d="M69.0488 31.8926C69.6261 32.4186 70.1191 33.0305 70.5104 33.7069C70.92 34.4877 71.2385 35.3132 71.4595 36.1671" stroke="white" stroke-width="1.00024"/>
<path d="M64.0166 34.7393C64.627 35.3214 65.1446 35.994 65.5513 36.7335C65.9798 37.5992 66.3107 38.5101 66.538 39.4493" stroke="white" stroke-width="1.0001"/>
<defs>
<filter id="filter0_d_1699_10132" x="12.1768" y="42.6973" width="47.2762" height="38.6288" filterUnits="userSpaceOnUse" color-interpolation-filters="sRGB">
<feFlood flood-opacity="0" result="BackgroundImageFix"/>
<feColorMatrix in="SourceAlpha" type="matrix" values="0 0 0 0 0 0 0 0 0 0 0 0 0 0 0 0 0 0 127 0" result="hardAlpha"/>
<feOffset dy="1.00436"/>
<feGaussianBlur stdDeviation="1.00436"/>
<feColorMatrix type="matrix" values="0 0 0 0 0 0 0 0 0 0 0 0 0 0 0 0 0 0 0.533 0"/>
<feBlend mode="normal" in2="BackgroundImageFix" result="effect1_dropShadow_1699_10132"/>
<feBlend mode="normal" in="SourceGraphic" in2="effect1_dropShadow_1699_10132" result="shape"/>
</filter>
<filter id="filter1_d_1699_10132" x="6.46687" y="38.2442" width="56.7176" height="31.2128" filterUnits="userSpaceOnUse" color-interpolation-filters="sRGB">
<feFlood flood-opacity="0" result="BackgroundImageFix"/>
<feColorMatrix in="SourceAlpha" type="matrix" values="0 0 0 0 0 0 0 0 0 0 0 0 0 0 0 0 0 0 127 0" result="hardAlpha"/>
<feOffset dy="1.00436"/>
<feGaussianBlur stdDeviation="1.00436"/>
<feColorMatrix type="matrix" values="0 0 0 0 0 0 0 0 0 0 0 0 0 0 0 0 0 0 0.533 0"/>
<feBlend mode="normal" in2="BackgroundImageFix" result="effect1_dropShadow_1699_10132"/>
<feBlend mode="normal" in="SourceGraphic" in2="effect1_dropShadow_1699_10132" result="shape"/>
</filter>
<filter id="filter2_d_1699_10132" x="6.04942" y="29.8477" width="48.6433" height="39.2801" filterUnits="userSpaceOnUse" color-interpolation-filters="sRGB">
<feFlood flood-opacity="0" result="BackgroundImageFix"/>
<feColorMatrix in="SourceAlpha" type="matrix" values="0 0 0 0 0 0 0 0 0 0 0 0 0 0 0 0 0 0 127 0" result="hardAlpha"/>
<feOffset dy="1.00436"/>
<feGaussianBlur stdDeviation="1.50654"/>
<feColorMatrix type="matrix" values="0 0 0 0 0 0 0 0 0 0 0 0 0 0 0 0 0 0 0.161 0"/>
<feBlend mode="normal" in2="BackgroundImageFix" result="effect1_dropShadow_1699_10132"/>
<feBlend mode="normal" in="SourceGraphic" in2="effect1_dropShadow_1699_10132" result="shape"/>
</filter>
<filter id="filter3_d_1699_10132" x="11.9596" y="32.3936" width="51.5642" height="36.4173" filterUnits="userSpaceOnUse" color-interpolation-filters="sRGB">
<feFlood flood-opacity="0" result="BackgroundImageFix"/>
<feColorMatrix in="SourceAlpha" type="matrix" values="0 0 0 0 0 0 0 0 0 0 0 0 0 0 0 0 0 0 127 0" result="hardAlpha"/>
<feOffset dy="1.00436"/>
<feGaussianBlur stdDeviation="1.50654"/>
<feColorMatrix type="matrix" values="0 0 0 0 0 0 0 0 0 0 0 0 0 0 0 0 0 0 0.537 0"/>
<feBlend mode="normal" in2="BackgroundImageFix" result="effect1_dropShadow_1699_10132"/>
<feBlend mode="normal" in="SourceGraphic" in2="effect1_dropShadow_1699_10132" result="shape"/>
</filter>
<filter id="filter4_d_1699_10132" x="13.0992" y="37.2208" width="51.8592" height="47.8333" filterUnits="userSpaceOnUse" color-interpolation-filters="sRGB">
<feFlood flood-opacity="0" result="BackgroundImageFix"/>
<feColorMatrix in="SourceAlpha" type="matrix" values="0 0 0 0 0 0 0 0 0 0 0 0 0 0 0 0 0 0 127 0" result="hardAlpha"/>
<feOffset dy="1.00436"/>
<feGaussianBlur stdDeviation="1.50654"/>
<feColorMatrix type="matrix" values="0 0 0 0 0 0 0 0 0 0 0 0 0 0 0 0 0 0 0.161 0"/>
<feBlend mode="normal" in2="BackgroundImageFix" result="effect1_dropShadow_1699_10132"/>
<feBlend mode="normal" in="SourceGraphic" in2="effect1_dropShadow_1699_10132" result="shape"/>
</filter>
<filter id="filter5_d_1699_10132" x="13.6627" y="37.9097" width="51.6131" height="34.6404" filterUnits="userSpaceOnUse" color-interpolation-filters="sRGB">
<feFlood flood-opacity="0" result="BackgroundImageFix"/>
<feColorMatrix in="SourceAlpha" type="matrix" values="0 0 0 0 0 0 0 0 0 0 0 0 0 0 0 0 0 0 127 0" result="hardAlpha"/>
<feOffset dy="1.00436"/>
<feGaussianBlur stdDeviation="1.50654"/>
<feColorMatrix type="matrix" values="0 0 0 0 0 0 0 0 0 0 0 0 0 0 0 0 0 0 0.537 0"/>
<feBlend mode="normal" in2="BackgroundImageFix" result="effect1_dropShadow_1699_10132"/>
<feBlend mode="normal" in="SourceGraphic" in2="effect1_dropShadow_1699_10132" result="shape"/>
</filter>
<linearGradient id="paint0_linear_1699_10132" x1="75.5547" y1="27.5209" x2="78.3808" y2="32.4065" gradientUnits="userSpaceOnUse">
<stop stop-color="white"/>
<stop offset="1" stop-color="#192437"/>
</linearGradient>
</defs>
</svg>
