<svg width="130" height="60" viewBox="0 0 130 60" fill="none" xmlns="http://www.w3.org/2000/svg">
<path d="M64.4622 58.0769C76.8208 58.0769 86.8395 48.4338 86.8395 36.5385C86.8395 24.6431 76.8208 15 64.4622 15C52.1036 15 42.085 24.6431 42.085 36.5385C42.085 48.4338 52.1036 58.0769 64.4622 58.0769Z" stroke="#EDF2FA" stroke-width="3.5"/>
<path d="M12.1152 35.8494H22.4647C24.1842 35.7657 25.8201 35.1096 27.0924 33.9932C28.3648 32.8769 29.1947 31.3696 29.44 29.7294C30.517 24.1638 33.0249 18.9465 36.7349 14.5535C40.4449 10.1605 45.2388 6.73175 50.6792 4.58017C57.1371 2.01583 64.2379 1.34415 71.0908 2.6494C77.9438 3.95465 84.2436 7.17871 89.2001 11.9171C94.2633 16.7599 97.6718 22.9737 98.971 29.7294C99.2161 31.3686 100.045 32.8751 101.316 33.9913C102.587 35.1076 104.222 35.7643 105.94 35.8494H125.6" stroke="#EDF2FA" stroke-width="3.5" stroke-linecap="round"/>
<path d="M128.684 36.8258C128.927 36.6908 129.128 36.4966 129.269 36.2627C129.409 36.0288 129.483 35.7635 129.483 35.4935C129.483 35.2235 129.409 34.9582 129.269 34.7243C129.128 34.4904 128.927 34.2962 128.684 34.1612L117.895 28.1612C117.652 28.0262 117.376 27.9551 117.095 27.9551C116.815 27.9551 116.539 28.0262 116.296 28.1612C116.053 28.2962 115.852 28.4904 115.711 28.7243C115.571 28.9582 115.497 29.2234 115.497 29.4935V41.4843C115.497 41.7543 115.571 42.0196 115.711 42.2535C115.852 42.4874 116.053 42.6816 116.296 42.8166C116.539 42.9516 116.815 43.0227 117.095 43.0227C117.376 43.0227 117.652 42.9516 117.895 42.8166L128.684 36.8258Z" fill="#EDF2FA"/>
</svg>
