<svg width="72" height="58" viewBox="0 0 72 58" fill="none" xmlns="http://www.w3.org/2000/svg">
<path d="M2 29.1356H66.4032C66.4032 29.1356 54.3565 2.36729 34.5274 2.00358C14.6983 1.63986 2 29.1356 2 29.1356Z" stroke="#CDD6E6" stroke-width="2.5" stroke-linejoin="round"/>
<path d="M2 29.1484H66.4032C66.4032 29.1484 54.3565 55.9167 34.5274 56.2804C14.6983 56.6441 2 29.1484 2 29.1484Z" stroke="#CDD6E6" stroke-width="2.5" stroke-linejoin="round"/>
<path d="M2 29.1372H66.4032C57.1464 22.0028 45.8039 18.0606 34.0924 17.9073C22.377 17.6435 10.9668 21.6362 2 29.1372Z" stroke="#CDD6E6" stroke-width="2.5" stroke-linejoin="round"/>
<path d="M2 29.1411H66.4032C57.1464 36.2755 45.8039 40.2177 34.0924 40.371C22.377 40.6348 10.9668 36.6421 2 29.1411Z" stroke="#CDD6E6" stroke-width="2.5" stroke-linejoin="round"/>
<path d="M68.2139 32.9195C69.8141 32.9195 71.1114 30.9282 71.1114 28.4717C71.1114 26.0153 69.8141 24.0239 68.2139 24.0239C66.6136 24.0239 65.3164 26.0153 65.3164 28.4717C65.3164 30.9282 66.6136 32.9195 68.2139 32.9195Z" fill="white" stroke="#CDD6E6" stroke-width="1.675" stroke-linejoin="round"/>
<path d="M68.1902 23.7705H63.167V33.1058H68.1902V28.4382V23.7705Z" stroke="#CDD6E6" stroke-width="1.498" stroke-linejoin="round"/>
</svg>
